<?xml version="1.0" standalone="no"?>
<!DOCTYPE svg PUBLIC "-//W3C//DTD SVG 20010904//EN"
 "http://www.w3.org/TR/2001/REC-SVG-20010904/DTD/svg10.dtd">
<svg version="1.0" xmlns="http://www.w3.org/2000/svg"
 width="1182.000000pt" height="1182.000000pt" viewBox="0 0 1182.000000 1182.000000"
 preserveAspectRatio="xMidYMid meet">
<metadata>
Created by potrace 1.14, written by Peter Selinger 2001-2017
</metadata>
<g transform="translate(0.000000,1182.000000) scale(0.100000,-0.100000)"
fill="#000000" stroke="none">
<path d="M3556 11292 c-16 -42 -37 -95 -47 -117 -10 -22 -41 -101 -70 -175
-29 -74 -56 -139 -61 -144 -4 -6 -8 -16 -8 -24 0 -8 -7 -28 -14 -45 -8 -18
-51 -124 -96 -237 -44 -113 -85 -214 -90 -225 -7 -14 -403 -1009 -508 -1274
-3 -8 15 8 39 35 116 129 278 292 404 408 79 72 292 244 403 325 359 261 743
463 1149 604 111 39 338 106 411 122 12 3 32 7 45 10 75 18 312 65 330 65 4 0
7 4 7 9 0 8 -19 18 -55 27 -14 4 -785 312 -810 324 -11 5 -186 75 -390 156
-203 80 -383 152 -400 159 -66 29 -187 75 -198 75 -7 0 -25 -35 -41 -78z"/>
<path d="M9818 8837 c25 -99 21 -350 -7 -452 -26 -96 -74 -201 -132 -287 -26
-39 -198 -218 -449 -468 -1089 -1082 -2388 -2371 -2415 -2395 -373 -329 -993
-300 -1336 62 -162 171 -247 381 -254 628 -8 249 50 441 186 621 29 38 485
502 1014 1031 l962 962 -76 32 c-198 83 -441 149 -641 175 -25 3 -56 7 -70 10
-137 23 -610 22 -725 -1 -19 -4 -62 -10 -145 -21 -19 -2 -55 -9 -80 -14 -25
-6 -54 -12 -65 -15 -51 -10 -217 -58 -285 -81 -514 -176 -999 -543 -1349
-1018 -270 -367 -426 -757 -495 -1238 -31 -209 -28 -613 5 -818 6 -36 13 -81
15 -100 3 -19 12 -64 20 -100 9 -36 17 -72 19 -80 12 -58 67 -237 84 -275 5
-11 19 -47 32 -80 52 -138 162 -343 273 -505 193 -285 518 -606 801 -792 151
-99 230 -141 425 -230 102 -47 333 -124 425 -142 17 -4 41 -9 55 -12 69 -15
244 -43 315 -51 160 -16 619 -8 729 13 11 2 38 6 61 9 22 4 55 9 73 11 79 12
308 76 427 119 137 49 352 153 470 226 78 48 250 169 281 196 10 10 42 36 69
58 27 22 94 83 148 135 211 202 358 282 587 317 41 6 242 5 280 -2 106 -18
182 -43 290 -93 99 -46 226 -148 315 -254 14 -17 27 -29 29 -27 3 4 75 187
333 844 80 204 153 389 164 412 10 24 19 47 19 53 0 6 4 18 10 28 5 9 28 64
50 122 22 58 45 114 50 125 10 22 182 461 210 535 9 25 22 59 29 75 24 59 61
155 165 420 59 149 110 279 116 290 5 11 29 72 54 135 147 379 476 1216 501
1275 14 33 16 65 5 65 -8 0 -1017 399 -1085 429 -21 10 -376 151 -456 182
l-46 18 15 -62z"/>
<path d="M1381 5839 c-92 -229 -144 -374 -144 -397 -1 -68 16 -224 49 -462 10
-79 63 -332 89 -430 14 -52 28 -105 30 -116 12 -53 91 -281 147 -423 64 -162
185 -414 263 -545 25 -42 45 -79 45 -82 0 -3 8 -17 19 -32 10 -15 53 -79 95
-143 42 -64 108 -159 146 -210 l70 -93 142 -58 c79 -32 152 -62 163 -67 11 -5
94 -40 185 -77 91 -37 185 -76 210 -86 l45 -19 -56 58 c-31 32 -73 76 -93 98
-20 22 -54 58 -75 80 -21 22 -71 81 -112 130 -41 50 -76 92 -79 95 -3 3 -26
32 -51 65 -375 490 -643 1035 -789 1600 -35 135 -81 352 -94 445 -22 152 -24
168 -31 235 -3 33 -8 74 -10 90 -10 77 -18 290 -18 488 0 119 -1 217 -1 217
-1 0 -66 -163 -145 -361z"/>
<path d="M1024 4944 c-4 -10 -43 -108 -86 -217 -91 -232 -89 -198 -28 -432 77
-292 178 -561 317 -842 77 -155 100 -194 121 -202 15 -6 104 -41 197 -80 94
-38 172 -68 174 -66 2 2 -10 26 -27 52 -163 255 -321 576 -427 870 -42 114
-127 395 -139 455 -2 13 -14 66 -25 118 -11 52 -23 111 -26 130 -3 19 -8 46
-10 60 -10 48 -13 65 -19 115 -8 57 -13 65 -22 39z"/>
<path d="M595 3868 c-55 -137 -101 -253 -103 -257 -2 -7 34 -23 153 -71 11 -4
36 -15 55 -23 51 -22 262 -107 266 -107 2 0 -7 21 -20 48 -51 101 -131 305
-188 477 -33 99 -61 181 -62 182 0 1 -46 -111 -101 -249z"/>
<path d="M8900 2063 c-79 -55 -277 -182 -345 -221 -22 -12 -124 -65 -228 -116
-396 -200 -819 -337 -1252 -406 -271 -43 -412 -57 -679 -65 -82 -3 -150 -6
-152 -8 -2 -1 65 -30 149 -64 84 -34 244 -100 357 -146 337 -139 1130 -464
1350 -553 112 -46 207 -81 210 -76 4 4 37 86 75 182 37 96 76 194 86 217 11
24 19 45 19 47 0 3 5 17 12 33 6 15 12 30 13 33 2 10 146 376 155 395 5 11 43
106 84 210 41 105 108 277 150 383 43 107 76 197 74 201 -2 4 -37 -17 -78 -46z"/>
</g>
</svg>
